master_3.ufo
<glyph name="exclam" format="2">
  <advance width="901"/>
  <unicode hex="0021"/>
  <outline>
    <contour>
      <point x="67" y="340" type="line"/>
      <point x="834" y="340" type="line"/>
      <point x="884" y="1600" type="line"/>
      <point x="17" y="1600" type="line"/>
    </contour>
    <component base="period" xOffset="1"/>
  </outline>
</glyph>
<glyph name="numbersign" format="2">
  <advance width="1631"/>
  <unicode hex="0023"/>
  <outline>
    <contour>
      <point x="17" y="0" type="line"/>
      <point x="683" y="0" type="line"/>
      <point x="739" y="529" type="line"/>
      <point x="813" y="529" type="line"/>
      <point x="757" y="0" type="line"/>
      <point x="1423" y="0" type="line"/>
      <point x="1479" y="529" type="line"/>
      <point x="1545" y="529" type="line"/>
      <point x="1545" y="531" type="line"/>
      <point x="1479" y="531" type="line"/>
      <point x="1529" y="999" type="line"/>
      <point x="1627" y="999" type="line"/>
      <point x="1627" y="1001" type="line"/>
      <point x="1529" y="1001" type="line"/>
      <point x="1593" y="1600" type="line"/>
      <point x="927" y="1600" type="line"/>
      <point x="863" y="1001" type="line"/>
      <point x="789" y="1001" type="line"/>
      <point x="853" y="1600" type="line"/>
      <point x="187" y="1600" type="line"/>
      <point x="123" y="1001" type="line"/>
      <point x="78" y="1001" type="line"/>
      <point x="78" y="999" type="line"/>
      <point x="123" y="999" type="line"/>
      <point x="73" y="531" type="line"/>
      <point x="-4" y="531" type="line"/>
      <point x="-4" y="529" type="line"/>
      <point x="73" y="529" type="line"/>
    </contour>
    <contour>
      <point x="739" y="531" type="line"/>
      <point x="789" y="999" type="line"/>
      <point x="863" y="999" type="line"/>
      <point x="813" y="531" type="line"/>
    </contour>
  </outline>
</glyph>
<glyph name="ampersand" format="2">
  <advance width="2832"/>
  <unicode hex="0026"/>
  <outline>
    <contour>
      <point x="2002" y="0" type="line"/>
      <point x="2868" y="0" type="line"/>
      <point x="2659" y="496" type="line"/>
      <point x="1107" y="496" type="line"/>
      <point x="917" y="2" type="line"/>
      <point x="886" y="2" type="line"/>
      <point x="886" y="600" type="line"/>
      <point x="1374" y="600" type="line"/>
      <point x="1374" y="1242" type="line"/>
      <point x="1433" y="1598" type="line"/>
      <point x="1490" y="1598" type="line"/>
      <point x="1490" y="800" type="line"/>
      <point x="2356" y="800" type="line"/>
      <point x="2356" y="1600" type="line"/>
      <point x="568" y="1600" type="line"/>
      <point x="508" y="1242" type="line"/>
      <point x="508" y="602" type="line"/>
      <point x="20" y="602" type="line"/>
      <point x="20" y="0" type="line"/>
      <point x="1684" y="0" type="line"/>
      <point x="1873" y="494" type="line"/>
      <point x="1893" y="494" type="line"/>
    </contour>
  </outline>
</glyph>
<glyph name="plus" format="2">
  <advance width="995"/>
  <unicode hex="002B"/>
  <outline>
    <contour>
      <point x="271" y="439" type="line"/>
      <point x="691" y="439" type="line"/>
      <point x="691" y="1159" type="line"/>
      <point x="271" y="1159" type="line"/>
    </contour>
    <contour>
      <point x="20" y="799" type="line"/>
      <point x="975" y="799" type="line"/>
      <point x="975" y="801" type="line"/>
      <point x="20" y="801" type="line"/>
    </contour>
  </outline>
</glyph>
<glyph name="hyphen" format="2">
  <advance width="457"/>
  <unicode hex="002D"/>
  <outline>
    <contour>
      <point x="20" y="699" type="line"/>
      <point x="437" y="699" type="line"/>
      <point x="437" y="701" type="line"/>
      <point x="20" y="701" type="line"/>
    </contour>
  </outline>
</glyph>
<glyph name="one" format="2">
  <advance width="934"/>
  <unicode hex="0031"/>
  <outline>
    <contour>
      <point x="-16" y="0" type="line"/>
      <point x="948" y="0" type="line"/>
      <point x="948" y="2" type="line"/>
      <point x="899" y="2" type="line"/>
      <point x="899" y="1550" type="line" smooth="yes"/>
      <point x="899" y="1582"/>
      <point x="881" y="1600"/>
      <point x="849" y="1600" type="curve" smooth="yes"/>
      <point x="-15" y="1600" type="line"/>
      <point x="-15" y="1598" type="line"/>
      <point x="23" y="1598" type="line" smooth="yes"/>
      <point x="29" y="1598"/>
      <point x="33" y="1594"/>
      <point x="33" y="1588" type="curve" smooth="yes"/>
      <point x="33" y="2" type="line"/>
      <point x="-16" y="2" type="line"/>
    </contour>
  </outline>
</glyph>
<glyph name="three" format="2">
  <advance width="1833"/>
  <unicode hex="0033"/>
  <outline>
    <contour>
      <point x="40" y="0" type="curve" smooth="yes"/>
      <point x="1763" y="0" type="line" smooth="yes"/>
      <point x="1795" y="0"/>
      <point x="1813" y="18"/>
      <point x="1813" y="50" type="curve" smooth="yes"/>
      <point x="1813" y="776" type="line" smooth="yes"/>
      <point x="1813" y="808"/>
      <point x="1795" y="826"/>
      <point x="1763" y="826" type="curve" smooth="yes"/>
      <point x="1578" y="826" type="line"/>
      <point x="1779" y="1070" type="line" smooth="yes"/>
      <point x="1795" y="1090"/>
      <point x="1801" y="1107"/>
      <point x="1801" y="1132" type="curve" smooth="yes"/>
      <point x="1801" y="1550" type="line" smooth="yes"/>
      <point x="1801" y="1582"/>
      <point x="1783" y="1600"/>
      <point x="1751" y="1600" type="curve" smooth="yes"/>
      <point x="51" y="1600" type="line" smooth="yes"/>
      <point x="19" y="1600"/>
      <point x="1" y="1582"/>
      <point x="1" y="1550" type="curve" smooth="yes"/>
      <point x="1" y="1100" type="line"/>
      <point x="867" y="1100" type="line"/>
      <point x="867" y="1588" type="line" smooth="yes"/>
      <point x="867" y="1594"/>
      <point x="871" y="1598"/>
      <point x="877" y="1598" type="curve" smooth="yes"/>
      <point x="925" y="1598" type="line" smooth="yes"/>
      <point x="931" y="1598"/>
      <point x="935" y="1594"/>
      <point x="935" y="1588" type="curve" smooth="yes"/>
      <point x="935" y="1132" type="line" smooth="yes"/>
      <point x="935" y="1107"/>
      <point x="929" y="1090"/>
      <point x="913" y="1070" type="curve" smooth="yes"/>
      <point x="712" y="826" type="line"/>
      <point x="323" y="826" type="line"/>
      <point x="323" y="824" type="line"/>
      <point x="897" y="824" type="line" smooth="yes"/>
      <point x="929" y="824"/>
      <point x="947" y="806"/>
      <point x="947" y="774" type="curve" smooth="yes"/>
      <point x="947" y="12" type="line" smooth="yes"/>
      <point x="947" y="6"/>
      <point x="943" y="2"/>
      <point x="937" y="2" type="curve" smooth="yes"/>
      <point x="866" y="2" type="line" smooth="yes"/>
      <point x="860" y="2"/>
      <point x="856" y="6"/>
      <point x="856" y="12" type="curve" smooth="yes"/>
      <point x="856" y="578" type="line"/>
      <point x="-10" y="578" type="line"/>
      <point x="-10" y="50" type="line" smooth="yes"/>
      <point x="-10" y="18"/>
      <point x="8" y="0"/>
    </contour>
  </outline>
</glyph>
<glyph name="five" format="2">
  <advance width="1823"/>
  <unicode hex="0035"/>
  <outline>
    <contour>
      <point x="57" y="0" type="curve" smooth="yes"/>
      <point x="1773" y="0" type="line" smooth="yes"/>
      <point x="1805" y="0"/>
      <point x="1823" y="18"/>
      <point x="1823" y="50" type="curve" smooth="yes"/>
      <point x="1823" y="751" type="line" smooth="yes"/>
      <point x="1823" y="783"/>
      <point x="1805" y="801"/>
      <point x="1773" y="801" type="curve" smooth="yes"/>
      <point x="881" y="801" type="line" smooth="yes"/>
      <point x="875" y="801"/>
      <point x="871" y="805"/>
      <point x="871" y="811" type="curve" smooth="yes"/>
      <point x="871" y="1588" type="line" smooth="yes"/>
      <point x="871" y="1594"/>
      <point x="875" y="1598"/>
      <point x="881" y="1598" type="curve" smooth="yes"/>
      <point x="1823" y="1598" type="line"/>
      <point x="1823" y="1600" type="line"/>
      <point x="55" y="1600" type="line" smooth="yes"/>
      <point x="23" y="1600"/>
      <point x="5" y="1582"/>
      <point x="5" y="1550" type="curve" smooth="yes"/>
      <point x="5" y="849" type="line" smooth="yes"/>
      <point x="5" y="817"/>
      <point x="23" y="799"/>
      <point x="55" y="799" type="curve" smooth="yes"/>
      <point x="947" y="799" type="line" smooth="yes"/>
      <point x="953" y="799"/>
      <point x="957" y="795"/>
      <point x="957" y="789" type="curve" smooth="yes"/>
      <point x="957" y="12" type="line" smooth="yes"/>
      <point x="957" y="6"/>
      <point x="953" y="2"/>
      <point x="947" y="2" type="curve" smooth="yes"/>
      <point x="883" y="2" type="line" smooth="yes"/>
      <point x="877" y="2"/>
      <point x="873" y="6"/>
      <point x="873" y="12" type="curve" smooth="yes"/>
      <point x="873" y="403" type="line"/>
      <point x="7" y="403" type="line"/>
      <point x="7" y="50" type="line" smooth="yes"/>
      <point x="7" y="18"/>
      <point x="25" y="0"/>
    </contour>
  </outline>
</glyph>
<glyph name="six" format="2">
  <advance width="1845"/>
  <unicode hex="0036"/>
  <outline>
    <contour>
      <point x="92" y="0" type="curve" smooth="yes"/>
      <point x="1725" y="0" type="line" smooth="yes"/>
      <point x="1770" y="0"/>
      <point x="1795" y="25"/>
      <point x="1795" y="70" type="curve" smooth="yes"/>
      <point x="1795" y="731" type="line" smooth="yes"/>
      <point x="1795" y="776"/>
      <point x="1770" y="801"/>
      <point x="1725" y="801" type="curve" smooth="yes"/>
      <point x="888" y="801" type="line"/>
      <point x="888" y="1588" type="line" smooth="yes"/>
      <point x="888" y="1594"/>
      <point x="892" y="1598"/>
      <point x="898" y="1598" type="curve" smooth="yes"/>
      <point x="919" y="1598" type="line" smooth="yes"/>
      <point x="925" y="1598"/>
      <point x="929" y="1594"/>
      <point x="929" y="1588" type="curve" smooth="yes"/>
      <point x="929" y="1100" type="line"/>
      <point x="1795" y="1100" type="line"/>
      <point x="1795" y="1530" type="line" smooth="yes"/>
      <point x="1795" y="1575"/>
      <point x="1770" y="1600"/>
      <point x="1725" y="1600" type="curve" smooth="yes"/>
      <point x="92" y="1600" type="line" smooth="yes"/>
      <point x="47" y="1600"/>
      <point x="22" y="1575"/>
      <point x="22" y="1530" type="curve" smooth="yes"/>
      <point x="22" y="70" type="line" smooth="yes"/>
      <point x="22" y="25"/>
      <point x="47" y="0"/>
    </contour>
    <contour>
      <point x="929" y="789" type="curve" smooth="yes"/>
      <point x="929" y="12" type="line" smooth="yes"/>
      <point x="929" y="6"/>
      <point x="925" y="2"/>
      <point x="919" y="2" type="curve" smooth="yes"/>
      <point x="898" y="2" type="line" smooth="yes"/>
      <point x="892" y="2"/>
      <point x="888" y="6"/>
      <point x="888" y="12" type="curve" smooth="yes"/>
      <point x="888" y="799" type="line"/>
      <point x="919" y="799" type="line" smooth="yes"/>
      <point x="925" y="799"/>
      <point x="929" y="795"/>
    </contour>
  </outline>
</glyph>
<glyph name="seven" format="2">
  <advance width="1803"/>
  <unicode hex="0037"/>
  <outline>
    <contour>
      <point x="660" y="0" type="line"/>
      <point x="1526" y="0" type="line"/>
      <point x="1803" y="1491" type="line"/>
      <point x="1803" y="1600" type="line"/>
      <point x="-20" y="1600" type="line"/>
      <point x="-20" y="1200" type="line"/>
      <point x="846" y="1200" type="line"/>
      <point x="846" y="1598" type="line"/>
      <point x="937" y="1598" type="line"/>
      <point x="937" y="1496" type="line"/>
    </contour>
  </outline>
</glyph>
<glyph name="eight" format="2">
  <advance width="1876"/>
  <unicode hex="0038"/>
  <outline>
    <contour>
      <point x="35" y="0" type="curve" smooth="yes"/>
      <point x="1841" y="0" type="line" smooth="yes"/>
      <point x="1847" y="0"/>
      <point x="1851" y="4"/>
      <point x="1851" y="10" type="curve" smooth="yes"/>
      <point x="1851" y="747" type="line" smooth="yes"/>
      <point x="1851" y="752"/>
      <point x="1852" y="758"/>
      <point x="1847" y="759" type="curve" smooth="yes"/>
      <point x="1715" y="799" type="line"/>
      <point x="1715" y="799" type="line"/>
      <point x="1838" y="799" type="line" smooth="yes"/>
      <point x="1844" y="799"/>
      <point x="1848" y="803"/>
      <point x="1848" y="809" type="curve" smooth="yes"/>
      <point x="1848" y="1590" type="line" smooth="yes"/>
      <point x="1848" y="1596"/>
      <point x="1844" y="1600"/>
      <point x="1838" y="1600" type="curve" smooth="yes"/>
      <point x="38" y="1600" type="line" smooth="yes"/>
      <point x="32" y="1600"/>
      <point x="28" y="1596"/>
      <point x="28" y="1590" type="curve" smooth="yes"/>
      <point x="28" y="850" type="line" smooth="yes"/>
      <point x="28" y="845"/>
      <point x="27" y="839"/>
      <point x="32" y="838" type="curve" smooth="yes"/>
      <point x="161" y="801" type="line"/>
      <point x="161" y="801" type="line"/>
      <point x="35" y="801" type="line" smooth="yes"/>
      <point x="29" y="801"/>
      <point x="25" y="797"/>
      <point x="25" y="791" type="curve" smooth="yes"/>
      <point x="25" y="10" type="line" smooth="yes"/>
      <point x="25" y="4"/>
      <point x="29" y="0"/>
    </contour>
    <contour>
      <point x="891" y="12" type="curve" smooth="yes"/>
      <point x="891" y="789" type="line" smooth="yes"/>
      <point x="891" y="795"/>
      <point x="895" y="799"/>
      <point x="901" y="799" type="curve" smooth="yes"/>
      <point x="949" y="799" type="line"/>
      <point x="981" y="758" type="line" smooth="yes"/>
      <point x="984" y="754"/>
      <point x="985" y="751"/>
      <point x="985" y="746" type="curve" smooth="yes"/>
      <point x="985" y="12" type="line" smooth="yes"/>
      <point x="985" y="6"/>
      <point x="981" y="2"/>
      <point x="975" y="2" type="curve" smooth="yes"/>
      <point x="901" y="2" type="line" smooth="yes"/>
      <point x="895" y="2"/>
      <point x="891" y="6"/>
    </contour>
    <contour>
      <point x="927" y="801" type="line"/>
      <point x="898" y="839" type="line" smooth="yes"/>
      <point x="895" y="843"/>
      <point x="894" y="846"/>
      <point x="894" y="851" type="curve" smooth="yes"/>
      <point x="894" y="1588" type="line" smooth="yes"/>
      <point x="894" y="1594"/>
      <point x="898" y="1598"/>
      <point x="904" y="1598" type="curve" smooth="yes"/>
      <point x="972" y="1598" type="line" smooth="yes"/>
      <point x="978" y="1598"/>
      <point x="982" y="1594"/>
      <point x="982" y="1588" type="curve" smooth="yes"/>
      <point x="982" y="811" type="line" smooth="yes"/>
      <point x="982" y="805"/>
      <point x="978" y="801"/>
      <point x="972" y="801" type="curve" smooth="yes"/>
    </contour>
  </outline>
</glyph>
<glyph name="at" format="2">
  <advance width="3765"/>
  <unicode hex="0040"/>
  <outline>
    <contour>
      <point x="907" y="2" type="line"/>
      <point x="907" y="850" type="line"/>
      <point x="1005" y="1268" type="line"/>
      <point x="2853" y="1268" type="line"/>
      <point x="2856" y="425" type="line"/>
      <point x="2767" y="2" type="line"/>
      <point x="2790" y="2" type="line"/>
      <point x="2790" y="1192" type="line" smooth="yes"/>
      <point x="2790" y="1196"/>
      <point x="1923" y="1199"/>
      <point x="1919" y="1199" type="curve" smooth="yes"/>
      <point x="1906" y="1199" type="line"/>
      <point x="1146" y="1200" type="line"/>
      <point x="983" y="857" type="line" smooth="yes"/>
      <point x="975" y="841"/>
      <point x="973" y="830"/>
      <point x="973" y="805" type="curve" smooth="yes"/>
      <point x="973" y="87" type="line" smooth="yes"/>
      <point x="973" y="83"/>
      <point x="976" y="80"/>
      <point x="980" y="80" type="curve" smooth="yes"/>
      <point x="1908" y="80" type="line" smooth="yes"/>
      <point x="1912" y="80"/>
      <point x="1915" y="81"/>
      <point x="1916" y="86" type="curve" smooth="yes"/>
      <point x="1977" y="309" type="line"/>
      <point x="1924" y="309" type="line"/>
      <point x="1924" y="0" type="line"/>
      <point x="3433" y="0" type="line"/>
      <point x="3722" y="441" type="line"/>
      <point x="3719" y="1270" type="line"/>
      <point x="327" y="1270" type="line"/>
      <point x="43" y="841" type="line"/>
      <point x="43" y="0" type="line"/>
      <point x="1407" y="0" type="line"/>
      <point x="1407" y="2" type="line"/>
    </contour>
    <contour>
      <point x="1839" y="89" type="curve" smooth="yes"/>
      <point x="1839" y="899" type="line" smooth="yes"/>
      <point x="1839" y="911"/>
      <point x="1838" y="913"/>
      <point x="1841" y="928" type="curve" smooth="yes"/>
      <point x="1900" y="1191" type="line" smooth="yes"/>
      <point x="1901" y="1196"/>
      <point x="1904" y="1197"/>
      <point x="1908" y="1197" type="curve" smooth="yes"/>
      <point x="1917" y="1197" type="line" smooth="yes"/>
      <point x="1921" y="1197"/>
      <point x="1924" y="1194"/>
      <point x="1924" y="1190" type="curve" smooth="yes"/>
      <point x="1924" y="318" type="line"/>
      <point x="1862" y="88" type="line" smooth="yes"/>
      <point x="1861" y="83"/>
      <point x="1860" y="82"/>
      <point x="1856" y="82" type="curve" smooth="yes"/>
      <point x="1844" y="82" type="line" smooth="yes"/>
      <point x="1840" y="82"/>
      <point x="1839" y="85"/>
    </contour>
  </outline>
</glyph>
<glyph name="B" format="2">
  <advance width="3227"/>
  <unicode hex="0042"/>
  <outline>
    <contour>
      <point x="100" y="0" type="curve" smooth="yes"/>
      <point x="1561" y="0" type="line" smooth="yes"/>
      <point x="1588" y="0"/>
      <point x="1607" y="6"/>
      <point x="1629" y="23" type="curve" smooth="yes"/>
      <point x="1837" y="178" type="line" smooth="yes"/>
      <point x="1860" y="195"/>
      <point x="1871" y="216"/>
      <point x="1871" y="245" type="curve" smooth="yes"/>
      <point x="1871" y="775" type="line" smooth="yes"/>
      <point x="1871" y="810"/>
      <point x="1851" y="830"/>
      <point x="1816" y="830" type="curve" smooth="yes"/>
      <point x="1523" y="830" type="line"/>
      <point x="1817" y="1187" type="line" smooth="yes"/>
      <point x="1835" y="1208"/>
      <point x="1839" y="1229"/>
      <point x="1839" y="1256" type="curve" smooth="yes"/>
      <point x="1839" y="1545" type="line" smooth="yes"/>
      <point x="1839" y="1580"/>
      <point x="1819" y="1600"/>
      <point x="1784" y="1600" type="curve" smooth="yes"/>
      <point x="100" y="1600" type="line" smooth="yes"/>
      <point x="65" y="1600"/>
      <point x="45" y="1580"/>
      <point x="45" y="1545" type="curve" smooth="yes"/>
      <point x="45" y="55" type="line" smooth="yes"/>
      <point x="45" y="20"/>
      <point x="65" y="0"/>
    </contour>
    <contour>
      <point x="911" y="57" type="curve" smooth="yes"/>
      <point x="911" y="799" type="line"/>
      <point x="950" y="799" type="line" smooth="yes"/>
      <point x="985" y="799"/>
      <point x="1005" y="779"/>
      <point x="1005" y="744" type="curve" smooth="yes"/>
      <point x="1005" y="267" type="line" smooth="yes"/>
      <point x="1005" y="242"/>
      <point x="1001" y="224"/>
      <point x="991" y="200" type="curve" smooth="yes"/>
      <point x="921" y="44" type="line" smooth="yes"/>
      <point x="908" y="16"/>
      <point x="826" y="2"/>
      <point x="857" y="2" type="curve" smooth="yes"/>
      <point x="966" y="2" type="line" smooth="yes"/>
      <point x="1001" y="2"/>
      <point x="911" y="22"/>
    </contour>
    <contour>
      <point x="911" y="801" type="line"/>
      <point x="911" y="1588" type="line" smooth="yes"/>
      <point x="911" y="1594"/>
      <point x="915" y="1598"/>
      <point x="921" y="1598" type="curve" smooth="yes"/>
      <point x="983" y="1598" type="line" smooth="yes"/>
      <point x="989" y="1598"/>
      <point x="993" y="1594"/>
      <point x="993" y="1588" type="curve" smooth="yes"/>
      <point x="993" y="1192" type="line" smooth="yes"/>
      <point x="993" y="1166"/>
      <point x="987" y="1146"/>
      <point x="974" y="1123" type="curve" smooth="yes"/>
      <point x="783" y="801" type="line"/>
    </contour>
  </outline>
</glyph>
<glyph name="C" format="2">
  <advance width="1882"/>
  <unicode hex="0043"/>
  <anchor x="953" y="0" name="bottom"/>
  <anchor x="953" y="1600" name="top"/>
  <outline>
    <contour>
      <point x="66" y="0" type="curve" smooth="yes"/>
      <point x="1810" y="0" type="line" smooth="yes"/>
      <point x="1834" y="0"/>
      <point x="1842" y="8"/>
      <point x="1842" y="26" type="curve" smooth="yes"/>
      <point x="1842" y="502" type="line"/>
      <point x="1000" y="502" type="line"/>
      <point x="1000" y="9" type="line" smooth="yes"/>
      <point x="1000" y="5"/>
      <point x="997" y="2"/>
      <point x="993" y="2" type="curve" smooth="yes"/>
      <point x="916" y="2" type="line" smooth="yes"/>
      <point x="912" y="2"/>
      <point x="909" y="5"/>
      <point x="909" y="9" type="curve" smooth="yes"/>
      <point x="909" y="1174" type="line"/>
      <point x="909" y="1178"/>
      <point x="908" y="1180"/>
      <point x="910" y="1189" type="curve" smooth="yes"/>
      <point x="1018" y="1591" type="line" smooth="yes"/>
      <point x="1019" y="1596"/>
      <point x="1030" y="1598"/>
      <point x="1026" y="1598" type="curve" smooth="yes"/>
      <point x="993" y="1598" type="line" smooth="yes"/>
      <point x="989" y="1598"/>
      <point x="1000" y="1595"/>
      <point x="1000" y="1591" type="curve" smooth="yes"/>
      <point x="1000" y="990" type="line"/>
      <point x="1842" y="990" type="line"/>
      <point x="1842" y="1567" type="line" smooth="yes"/>
      <point x="1842" y="1595"/>
      <point x="1838" y="1600"/>
      <point x="1811" y="1600" type="curve" smooth="yes"/>
      <point x="241" y="1600" type="line" smooth="yes"/>
      <point x="220" y="1600"/>
      <point x="214" y="1597"/>
      <point x="207" y="1580" type="curve" smooth="yes"/>
      <point x="49" y="1184" type="line" smooth="yes"/>
      <point x="44" y="1171"/>
      <point x="43" y="1166"/>
      <point x="43" y="1154" type="curve" smooth="yes"/>
      <point x="43" y="19" type="line" smooth="yes"/>
      <point x="43" y="8"/>
      <point x="48" y="0"/>
    </contour>
  </outline>
</glyph>
<glyph name="E" format="2">
  <advance width="1218"/>
  <unicode hex="0045"/>
  <anchor x="611" y="0" name="bottom"/>
  <anchor x="1081" y="10" name="ogonek"/>
  <anchor x="611" y="1600" name="top"/>
  <anchor x="43" y="1600" name="topleft"/>
  <outline>
    <contour>
      <point x="100" y="0" type="curve" smooth="yes"/>
      <point x="1108" y="0" type="line"/>
      <point x="1108" y="2" type="line"/>
      <point x="921" y="2" type="line" smooth="yes"/>
      <point x="915" y="2"/>
      <point x="911" y="6"/>
      <point x="911" y="12" type="curve" smooth="yes"/>
      <point x="911" y="799" type="line"/>
      <point x="1029" y="799" type="line"/>
      <point x="1029" y="801" type="line"/>
      <point x="911" y="801" type="line"/>
      <point x="911" y="1588" type="line" smooth="yes"/>
      <point x="911" y="1594"/>
      <point x="915" y="1598"/>
      <point x="921" y="1598" type="curve" smooth="yes"/>
      <point x="1107" y="1598" type="line"/>
      <point x="1107" y="1600" type="line"/>
      <point x="100" y="1600" type="line" smooth="yes"/>
      <point x="65" y="1600"/>
      <point x="45" y="1580"/>
      <point x="45" y="1545" type="curve" smooth="yes"/>
      <point x="45" y="55" type="line" smooth="yes"/>
      <point x="45" y="20"/>
      <point x="65" y="0"/>
    </contour>
  </outline>
</glyph>
<glyph name="F" format="2">
  <advance width="1221"/>
  <unicode hex="0046"/>
  <outline>
    <contour>
      <point x="45" y="0" type="line"/>
      <point x="911" y="0" type="line"/>
      <point x="911" y="799" type="line"/>
      <point x="1160" y="799" type="line"/>
      <point x="1160" y="801" type="line"/>
      <point x="911" y="801" type="line"/>
      <point x="911" y="1584" type="line" smooth="yes"/>
      <point x="911" y="1593"/>
      <point x="916" y="1598"/>
      <point x="925" y="1598" type="curve" smooth="yes"/>
      <point x="1211" y="1598" type="line"/>
      <point x="1211" y="1600" type="line"/>
      <point x="100" y="1600" type="line" smooth="yes"/>
      <point x="65" y="1600"/>
      <point x="45" y="1580"/>
      <point x="45" y="1545" type="curve" smooth="yes"/>
    </contour>
  </outline>
</glyph>
<glyph name="J" format="2">
  <advance width="1866"/>
  <unicode hex="004A"/>
  <anchor x="946" y="0" name="bottom"/>
  <anchor x="946" y="1600" name="top"/>
  <outline>
    <contour>
      <point x="79" y="0" type="curve" smooth="yes"/>
      <point x="1450" y="0" type="line" smooth="yes"/>
      <point x="1508" y="0"/>
      <point x="1531" y="8"/>
      <point x="1560" y="50" type="curve" smooth="yes"/>
      <point x="1790" y="378" type="line" smooth="yes"/>
      <point x="1818" y="418"/>
      <point x="1823" y="434"/>
      <point x="1823" y="466" type="curve" smooth="yes"/>
      <point x="1823" y="1545" type="line" smooth="yes"/>
      <point x="1823" y="1580"/>
      <point x="1803" y="1600"/>
      <point x="1768" y="1600" type="curve" smooth="yes"/>
      <point x="297" y="1600" type="line"/>
      <point x="297" y="1599" type="line"/>
      <point x="945" y="1599" type="line" smooth="yes"/>
      <point x="952" y="1599"/>
      <point x="957" y="1594"/>
      <point x="957" y="1587" type="curve" smooth="yes"/>
      <point x="957" y="83" type="line" smooth="yes"/>
      <point x="957" y="78"/>
      <point x="957" y="75"/>
      <point x="954" y="68" type="curve" smooth="yes"/>
      <point x="929" y="11" type="line" smooth="yes"/>
      <point x="926" y="4"/>
      <point x="921" y="2"/>
      <point x="915" y="2" type="curve" smooth="yes"/>
      <point x="899" y="2" type="line" smooth="yes"/>
      <point x="892" y="2"/>
      <point x="890" y="4"/>
      <point x="890" y="11" type="curve" smooth="yes"/>
      <point x="890" y="801" type="line"/>
      <point x="24" y="801" type="line"/>
      <point x="24" y="55" type="line" smooth="yes"/>
      <point x="24" y="20"/>
      <point x="44" y="0"/>
    </contour>
  </outline>
</glyph>
<glyph name="L" format="2">
  <advance width="1078"/>
  <unicode hex="004C"/>
  <anchor x="912" y="0" name="bottom"/>
  <anchor x="912" y="800" name="center"/>
  <anchor x="912" y="1600" name="top"/>
  <anchor x="1782" y="1600" name="topright"/>
  <outline>
    <contour>
      <point x="98" y="0" type="curve" smooth="yes"/>
      <point x="1033" y="0" type="line"/>
      <point x="1033" y="3" type="line"/>
      <point x="915" y="3" type="line" smooth="yes"/>
      <point x="911" y="3"/>
      <point x="909" y="4"/>
      <point x="909" y="9" type="curve" smooth="yes"/>
      <point x="909" y="1600" type="line"/>
      <point x="43" y="1600" type="line"/>
      <point x="43" y="55" type="line" smooth="yes"/>
      <point x="43" y="20"/>
      <point x="63" y="0"/>
    </contour>
  </outline>
</glyph>
<glyph name="N" format="2">
  <advance width="1891"/>
  <unicode hex="004E"/>
  <anchor x="868" y="0" name="bottom"/>
  <anchor x="868" y="1600" name="top"/>
  <outline>
    <contour>
      <point x="43" y="0" type="line"/>
      <point x="885" y="0" type="line"/>
      <point x="885" y="1506" type="line" smooth="yes"/>
      <point x="885" y="1517"/>
      <point x="887" y="1527"/>
      <point x="892" y="1537" type="curve" smooth="yes"/>
      <point x="917" y="1588" type="line" smooth="yes"/>
      <point x="922" y="1596"/>
      <point x="924" y="1598"/>
      <point x="927" y="1598" type="curve" smooth="yes"/>
      <point x="987" y="1598" type="line" smooth="yes"/>
      <point x="991" y="1598"/>
      <point x="993" y="1596"/>
      <point x="993" y="1589" type="curve" smooth="yes"/>
      <point x="993" y="0" type="line"/>
      <point x="1846" y="0" type="line"/>
      <point x="1846" y="1575" type="line" smooth="yes"/>
      <point x="1846" y="1591"/>
      <point x="1837" y="1600"/>
      <point x="1821" y="1600" type="curve" smooth="yes"/>
      <point x="302" y="1600" type="line" smooth="yes"/>
      <point x="288" y="1600"/>
      <point x="279" y="1594"/>
      <point x="273" y="1582" type="curve" smooth="yes"/>
      <point x="51" y="1161" type="line" smooth="yes"/>
      <point x="46" y="1151"/>
      <point x="43" y="1142"/>
      <point x="43" y="1130" type="curve" smooth="yes"/>
    </contour>
  </outline>
</glyph>
<glyph name="X" format="2">
  <advance width="1826"/>
  <unicode hex="0058"/>
  <outline>
    <contour>
      <point x="928" y="799" type="line"/>
      <point x="937" y="799" type="line" smooth="yes"/>
      <point x="953" y="799"/>
      <point x="955" y="794"/>
      <point x="955" y="778" type="curve" smooth="yes"/>
      <point x="955" y="0" type="line"/>
      <point x="1821" y="0" type="line"/>
      <point x="1821" y="776" type="line" smooth="yes"/>
      <point x="1821" y="792"/>
      <point x="1812" y="801"/>
      <point x="1796" y="801" type="curve" smooth="yes"/>
      <point x="1546" y="801" type="line"/>
      <point x="1803" y="1031" type="line" smooth="yes"/>
      <point x="1812" y="1039"/>
      <point x="1817" y="1048"/>
      <point x="1817" y="1061" type="curve" smooth="yes"/>
      <point x="1817" y="1600" type="line"/>
      <point x="951" y="1600" type="line"/>
      <point x="951" y="960" type="line" smooth="yes"/>
      <point x="951" y="949"/>
      <point x="950" y="939"/>
      <point x="946" y="929" type="curve" smooth="yes"/>
      <point x="900" y="801" type="line"/>
      <point x="895" y="801" type="line" smooth="yes"/>
      <point x="884" y="801"/>
      <point x="881" y="805"/>
      <point x="881" y="826" type="curve" smooth="yes"/>
      <point x="881" y="1600" type="line"/>
      <point x="15" y="1600" type="line"/>
      <point x="15" y="824" type="line" smooth="yes"/>
      <point x="15" y="808"/>
      <point x="24" y="799"/>
      <point x="40" y="799" type="curve" smooth="yes"/>
      <point x="282" y="799" type="line"/>
      <point x="19" y="566" type="line" smooth="yes"/>
      <point x="10" y="558"/>
      <point x="5" y="549"/>
      <point x="5" y="536" type="curve" smooth="yes"/>
      <point x="5" y="0" type="line"/>
      <point x="871" y="0" type="line"/>
      <point x="871" y="637" type="line" smooth="yes"/>
      <point x="871" y="648"/>
      <point x="873" y="658"/>
      <point x="877" y="668" type="curve" smooth="yes"/>
    </contour>
  </outline>
</glyph>
<glyph name="Z" format="2">
  <advance width="1562"/>
  <unicode hex="005A"/>
  <anchor x="561" y="0" name="bottom"/>
  <anchor x="561" y="800" name="center"/>
  <anchor x="561" y="1600" name="top"/>
  <outline>
    <contour>
      <point x="28" y="0" type="curve" smooth="yes"/>
      <point x="1524" y="0" type="line" smooth="yes"/>
      <point x="1540" y="0"/>
      <point x="1549" y="9"/>
      <point x="1549" y="25" type="curve" smooth="yes"/>
      <point x="1549" y="292" type="line"/>
      <point x="802" y="292" type="line"/>
      <point x="807" y="27" type="line" smooth="yes"/>
      <point x="807" y="10"/>
      <point x="798" y="2"/>
      <point x="782" y="2" type="curve" smooth="yes"/>
      <point x="740" y="2" type="line" smooth="yes"/>
      <point x="724" y="2"/>
      <point x="715" y="11"/>
      <point x="715" y="27" type="curve" smooth="yes"/>
      <point x="715" y="214" type="line" smooth="yes"/>
      <point x="715" y="226"/>
      <point x="717" y="235"/>
      <point x="724" y="245" type="curve" smooth="yes"/>
      <point x="1546" y="1466" type="line" smooth="yes"/>
      <point x="1553" y="1476"/>
      <point x="1555" y="1485"/>
      <point x="1555" y="1497" type="curve" smooth="yes"/>
      <point x="1555" y="1575" type="line" smooth="yes"/>
      <point x="1555" y="1591"/>
      <point x="1546" y="1600"/>
      <point x="1530" y="1600" type="curve" smooth="yes"/>
      <point x="91" y="1600" type="line" smooth="yes"/>
      <point x="75" y="1600"/>
      <point x="66" y="1591"/>
      <point x="66" y="1575" type="curve" smooth="yes"/>
      <point x="66" y="1500" type="line"/>
      <point x="768" y="1500" type="line"/>
      <point x="768" y="1573" type="line" smooth="yes"/>
      <point x="768" y="1589"/>
      <point x="777" y="1598"/>
      <point x="793" y="1598" type="curve" smooth="yes"/>
      <point x="828" y="1598" type="line" smooth="yes"/>
      <point x="844" y="1598"/>
      <point x="853" y="1594"/>
      <point x="853" y="1589" type="curve" smooth="yes"/>
      <point x="853" y="1589" type="line" smooth="yes"/>
      <point x="853" y="1583"/>
      <point x="850" y="1576"/>
      <point x="844" y="1566" type="curve" smooth="yes"/>
      <point x="12" y="248" type="line" smooth="yes"/>
      <point x="6" y="238"/>
      <point x="3" y="229"/>
      <point x="3" y="217" type="curve" smooth="yes"/>
      <point x="3" y="25" type="line" smooth="yes"/>
      <point x="3" y="9"/>
      <point x="12" y="0"/>
    </contour>
  </outline>
</glyph>
<glyph name="b" format="2">
  <advance width="1868"/>
  <unicode hex="0062"/>
  <outline>
    <contour>
      <point x="20" y="60" type="curve" smooth="yes"/>
      <point x="20" y="1600" type="line"/>
      <point x="886" y="1600" type="line"/>
      <point x="886" y="9" type="line" smooth="yes"/>
      <point x="886" y="5"/>
      <point x="889" y="2"/>
      <point x="893" y="2" type="curve" smooth="yes"/>
      <point x="897" y="2" type="line" smooth="yes"/>
      <point x="901" y="2"/>
      <point x="901" y="3"/>
      <point x="904" y="8" type="curve" smooth="yes"/>
      <point x="976" y="139" type="line" smooth="yes"/>
      <point x="978" y="142"/>
      <point x="977" y="144"/>
      <point x="977" y="147" type="curve" smooth="yes"/>
      <point x="977" y="1191" type="line" smooth="yes"/>
      <point x="977" y="1195"/>
      <point x="974" y="1198"/>
      <point x="970" y="1198" type="curve" smooth="yes"/>
      <point x="939" y="1198" type="line" smooth="yes"/>
      <point x="924" y="1198"/>
      <point x="914" y="1190"/>
      <point x="911" y="1176" type="curve" smooth="yes"/>
      <point x="885" y="1055" type="line"/>
      <point x="885" y="1064" type="line"/>
      <point x="909" y="1178" type="line" smooth="yes"/>
      <point x="912" y="1192"/>
      <point x="922" y="1200"/>
      <point x="937" y="1200" type="curve" smooth="yes"/>
      <point x="1783" y="1200" type="line" smooth="yes"/>
      <point x="1822" y="1200"/>
      <point x="1843" y="1179"/>
      <point x="1843" y="1140" type="curve" smooth="yes"/>
      <point x="1843" y="283" type="line" smooth="yes"/>
      <point x="1843" y="256"/>
      <point x="1843" y="233"/>
      <point x="1830" y="209" type="curve" smooth="yes"/>
      <point x="1741" y="48" type="line" smooth="yes"/>
      <point x="1725" y="19"/>
      <point x="1706" y="0"/>
      <point x="1672" y="0" type="curve" smooth="yes"/>
      <point x="80" y="0" type="line" smooth="yes"/>
      <point x="41" y="0"/>
      <point x="20" y="21"/>
    </contour>
  </outline>
</glyph>
<glyph name="h" format="2">
  <advance width="1893"/>
  <unicode hex="0068"/>
  <anchor x="1618" y="0" name="bottom"/>
  <anchor x="1618" y="850" name="center"/>
  <anchor x="1618" y="1700" name="top"/>
  <outline>
    <contour>
      <point x="20" y="0" type="line"/>
      <point x="886" y="0" type="line"/>
      <point x="886" y="1037" type="line"/>
      <point x="916" y="1180" type="line" smooth="yes"/>
      <point x="918" y="1191"/>
      <point x="922" y="1198"/>
      <point x="934" y="1198" type="curve" smooth="yes"/>
      <point x="960" y="1198" type="line" smooth="yes"/>
      <point x="972" y="1198"/>
      <point x="975" y="1195"/>
      <point x="975" y="1182" type="curve" smooth="yes"/>
      <point x="975" y="0" type="line"/>
      <point x="1841" y="0" type="line"/>
      <point x="1841" y="1150" type="line" smooth="yes"/>
      <point x="1841" y="1182"/>
      <point x="1823" y="1200"/>
      <point x="1791" y="1200" type="curve" smooth="yes"/>
      <point x="903" y="1200" type="line" smooth="yes"/>
      <point x="891" y="1200"/>
      <point x="886" y="1193"/>
      <point x="884" y="1182" type="curve" smooth="yes"/>
      <point x="855" y="1045" type="line"/>
      <point x="886" y="1045" type="line"/>
      <point x="886" y="1600" type="line"/>
      <point x="20" y="1600" type="line"/>
    </contour>
  </outline>
</glyph>
<glyph name="j" format="2">
  <advance width="950"/>
  <unicode hex="006A"/>
  <outline>
    <contour>
      <point x="-30" y="-300" type="line"/>
      <point x="720" y="-300" type="line" smooth="yes"/>
      <point x="744" y="-300"/>
      <point x="761" y="-281"/>
      <point x="778" y="-256" type="curve" smooth="yes"/>
      <point x="889" y="-91" type="line" smooth="yes"/>
      <point x="898" y="-78"/>
      <point x="901" y="-57"/>
      <point x="901" y="-22" type="curve" smooth="yes"/>
      <point x="901" y="1200" type="line"/>
      <point x="35" y="1200" type="line"/>
      <point x="35" y="-158" type="line" smooth="yes"/>
      <point x="35" y="-163"/>
      <point x="36" y="-166"/>
      <point x="33" y="-172" type="curve" smooth="yes"/>
      <point x="-19" y="-288" type="line" smooth="yes"/>
      <point x="-22" y="-295"/>
      <point x="-24" y="-298"/>
      <point x="-28" y="-298" type="curve" smooth="yes"/>
      <point x="-30" y="-298" type="line"/>
    </contour>
    <contour>
      <point x="35" y="1398" type="line"/>
      <point x="901" y="1398" type="line"/>
      <point x="901" y="1400" type="line"/>
      <point x="35" y="1400" type="line"/>
    </contour>
  </outline>
</glyph>
<glyph name="k" format="2">
  <advance width="1862"/>
  <unicode hex="006B"/>
  <outline>
    <contour>
      <point x="885" y="709" type="line"/>
      <point x="923" y="709" type="line" smooth="yes"/>
      <point x="955" y="709"/>
      <point x="973" y="691"/>
      <point x="973" y="659" type="curve" smooth="yes"/>
      <point x="973" y="0" type="line"/>
      <point x="1839" y="0" type="line"/>
      <point x="1839" y="661" type="line" smooth="yes"/>
      <point x="1839" y="693"/>
      <point x="1821" y="711"/>
      <point x="1789" y="711" type="curve" smooth="yes"/>
      <point x="1680" y="711" type="line"/>
      <point x="1681" y="711" type="line"/>
      <point x="1829" y="1200" type="line"/>
      <point x="1003" y="1200" type="line"/>
      <point x="915" y="711" type="line"/>
      <point x="885" y="711" type="line"/>
    </contour>
    <contour>
      <point x="20" y="0" type="line"/>
      <point x="886" y="0" type="line"/>
      <point x="886" y="1600" type="line"/>
      <point x="20" y="1600" type="line"/>
    </contour>
  </outline>
</glyph>
<glyph name="v" format="2">
  <advance width="1879"/>
  <unicode hex="0076"/>
  <outline>
    <contour>
      <point x="102" y="0" type="curve" smooth="yes"/>
      <point x="1769" y="0" type="line" smooth="yes"/>
      <point x="1801" y="0"/>
      <point x="1819" y="17"/>
      <point x="1820" y="49" type="curve" smooth="yes"/>
      <point x="1873" y="1200" type="line"/>
      <point x="1007" y="1200" type="line"/>
      <point x="953" y="12" type="line" smooth="yes"/>
      <point x="953" y="5"/>
      <point x="949" y="2"/>
      <point x="942" y="2" type="curve" smooth="yes"/>
      <point x="928" y="2" type="line" smooth="yes"/>
      <point x="921" y="2"/>
      <point x="918" y="5"/>
      <point x="918" y="12" type="curve" smooth="yes"/>
      <point x="918" y="1200" type="line"/>
      <point x="52" y="1200" type="line"/>
      <point x="52" y="50" type="line" smooth="yes"/>
      <point x="52" y="18"/>
      <point x="70" y="0"/>
    </contour>
  </outline>
</glyph>
<glyph name="cent" format="2">
  <advance width="885"/>
  <unicode hex="00A2"/>
  <anchor x="1301" y="0" name="bottom"/>
  <anchor x="1301" y="1200" name="top"/>
  <outline>
    <contour>
      <point x="789" y="-135" type="line"/>
      <point x="803" y="-135" type="line"/>
      <point x="803" y="1408" type="line"/>
      <point x="789" y="1408" type="line"/>
    </contour>
    <component base="c"/>
  </outline>
</glyph>
<glyph name="bullet" format="2">
  <advance width="838"/>
  <unicode hex="2022"/>
  <outline>
    <contour>
      <point x="13" y="791" type="line"/>
      <point x="825" y="791" type="line"/>
      <point x="825" y="806" type="line"/>
      <point x="13" y="806" type="line"/>
    </contour>
  </outline>
</glyph>
